# xmcd
#
# Track frame offsets:
#	150
#	26821
#	41119
#	61407
#	77586
#	97390
#	121623
#	139965
#	160097
#	180177
#	202617
#	223899
#
# Disc length: 3103 seconds
#
# Revision: 1
# Processed by: cddbd v1.4PL0 Copyright (c) Steve Scherf et al.
# Submitted via: EasyCDDAExtractor 6.0.0.1
#
DISCID=a20c1d0c
DTITLE=Tilak - Illusione
DYEAR=1900
DGENRE=
TTITLE0=So we'll go no more a roving
TTITLE1=aeteria
TTITLE2=Illusion
TTITLE3=anaraz
TTITLE4=Alaassumakunnu'si
TTITLE5=kittafe me
TTITLE6=Evocazione
TTITLE7=Silenzio
TTITLE8=Walkin around
TTITLE9=Maharbeeeltika
TTITLE10=alefeia
TTITLE11=Apparenza
EXTD=
EXTT0=
EXTT1=
EXTT2=
EXTT3=
EXTT4=
EXTT5=
EXTT6=
EXTT7=
EXTT8=
EXTT9=
EXTT10=
EXTT11=
PLAYORDER=
